<svg width="135" height="33" viewBox="0 0 135 33" fill="none" xmlns="http://www.w3.org/2000/svg">
<path d="M23.5202 0.796265H7.84035C6.80021 0.806787 5.77232 1.02209 4.81538 1.42988C3.85845 1.83768 2.99122 2.42997 2.2632 3.17294C1.53518 3.91592 0.960646 4.79502 0.572395 5.76004C0.184144 6.72507 -0.0102161 7.75713 0.000413597 8.79727V24.7953C-0.0199837 26.8956 0.794322 28.9181 2.26439 30.4184C3.73446 31.9187 5.74002 32.774 7.84035 32.7963H23.5202C25.6206 32.774 27.6261 31.9187 29.0962 30.4184C30.5663 28.9181 31.3806 26.8956 31.3602 24.7953V8.79727C31.3708 7.75713 31.1764 6.72507 30.7882 5.76004C30.3999 4.79502 29.8254 3.91592 29.0974 3.17294C28.3694 2.42997 27.5021 1.83768 26.5452 1.42988C25.5883 1.02209 24.5604 0.806787 23.5202 0.796265V0.796265ZM23.5202 3.1559C24.9997 3.1729 26.4121 3.77588 27.4478 4.83264C28.4834 5.88939 29.0577 7.31369 29.0448 8.79324V24.7953C29.0577 26.2748 28.4834 27.6991 27.4478 28.7559C26.4121 29.8126 24.9997 30.4156 23.5202 30.4326H7.84035C6.36047 30.4156 4.94766 29.8128 3.9114 28.7561C2.87513 27.6995 2.29991 26.2752 2.31173 24.7953V8.79727C2.29991 7.31734 2.87513 5.89306 3.9114 4.83642C4.94766 3.77977 6.36047 3.17692 7.84035 3.15992L23.5202 3.1559Z" fill="#2E2E36"/>
<path d="M46.3797 12.4736C47.33 13.3138 47.8051 14.5849 47.8051 16.2869V22.8101H44.6965V21.3726C44.071 22.4463 42.91 22.9765 41.2134 22.9631C40.4308 22.9889 39.6518 22.8446 38.9303 22.5403C38.3251 22.2759 37.8101 21.8407 37.4485 21.288C37.106 20.7553 36.9281 20.1334 36.9371 19.5002C36.919 19.0153 37.0196 18.5333 37.2301 18.0961C37.4406 17.6589 37.7547 17.2797 38.1451 16.9915C38.9504 16.3822 40.1866 16.0788 41.8537 16.0815H44.4912C44.5103 15.7716 44.4611 15.4613 44.3469 15.1725C44.2328 14.8837 44.0566 14.6235 43.8308 14.4104C43.2647 13.9819 42.5618 13.7743 41.8537 13.8266C41.2438 13.8274 40.6378 13.9239 40.0578 14.1125C39.5164 14.2808 39.0092 14.5439 38.5599 14.8896L37.3519 12.5743C38.0336 12.1069 38.791 11.7608 39.5907 11.5515C40.4673 11.3127 41.3719 11.1921 42.2805 11.1931C44.0657 11.1931 45.4321 11.6199 46.3797 12.4736ZM43.561 20.3578C44.0016 20.0951 44.3342 19.6839 44.4992 19.1982V18.0304H42.2241C40.8631 18.0304 40.1826 18.476 40.1826 19.3673C40.1786 19.5599 40.2208 19.7507 40.3055 19.9237C40.3903 20.0967 40.5152 20.247 40.6698 20.3619C41.0752 20.631 41.5572 20.7611 42.0429 20.7323C42.5726 20.7431 43.095 20.608 43.5529 20.3417L43.561 20.3578Z" fill="#2E2E36"/>
<path d="M52.319 22.2101C51.3818 21.7372 50.5953 21.012 50.048 20.1162C49.4996 19.2 49.2205 18.1477 49.2427 17.0801C49.2204 16.0112 49.4995 14.9576 50.048 14.04C50.5953 13.1442 51.3818 12.419 52.319 11.9461C53.337 11.4324 54.4647 11.1739 55.6048 11.1931C56.7033 11.1667 57.7897 11.4262 58.7577 11.9461C59.6359 12.4264 60.3288 13.1859 60.7267 14.1044L58.1537 15.4855C57.9171 15.0044 57.5483 14.6008 57.0904 14.3219C56.6325 14.043 56.1046 13.9005 55.5686 13.9111C55.1719 13.8999 54.7771 13.9694 54.4082 14.1155C54.0392 14.2615 53.7038 14.4811 53.4224 14.7607C53.1317 15.0701 52.9066 15.4351 52.7606 15.8336C52.6146 16.2322 52.5507 16.6562 52.5727 17.0801C52.551 17.5034 52.6151 17.9267 52.7611 18.3245C52.9071 18.7224 53.132 19.0867 53.4224 19.3955C53.7033 19.6759 54.0386 19.896 54.4077 20.0421C54.7767 20.1882 55.1718 20.2573 55.5686 20.2451C56.1035 20.2583 56.6309 20.1168 57.0874 19.8375C57.5438 19.5582 57.9099 19.153 58.1416 18.6706L60.7147 20.076C60.3051 20.9787 59.6143 21.7245 58.7456 22.202C57.7791 22.7265 56.6921 22.9888 55.5927 22.9631C54.4567 22.9803 53.3334 22.7219 52.319 22.2101Z" fill="#2E2E36"/>
<path d="M70.9022 12.4736C71.8524 13.3138 72.3276 14.5849 72.3276 16.2869V22.8101H69.223V21.3726C68.6029 22.4463 67.4419 22.9765 65.74 22.9631C64.9558 22.9832 64.1766 22.832 63.4568 22.5202C62.8555 22.261 62.3421 21.833 61.979 21.288C61.6365 20.7553 61.4587 20.1334 61.4676 19.5002C61.4506 19.0154 61.5516 18.5338 61.762 18.0968C61.9725 17.6597 62.286 17.2804 62.6756 16.9915C63.481 16.3822 64.7172 16.0788 66.3842 16.0815H69.0217C69.0408 15.7716 68.9916 15.4613 68.8775 15.1725C68.7634 14.8837 68.5872 14.6235 68.3613 14.4104C67.7952 13.9819 67.0923 13.7743 66.3842 13.8266C65.7743 13.8274 65.1683 13.9239 64.5883 14.1125C64.0441 14.2799 63.5341 14.5431 63.0823 14.8896L61.8945 12.5743C62.5777 12.1069 63.3364 11.7609 64.1373 11.5515C65.0125 11.3124 65.9159 11.1919 66.8231 11.1931C68.5949 11.1931 69.9545 11.62 70.9022 12.4736ZM68.0835 20.3578C68.5228 20.0946 68.854 19.6835 69.0177 19.1982V18.0304H66.7426C65.3816 18.0304 64.7011 18.476 64.7011 19.3673C64.6958 19.5636 64.7386 19.7583 64.8256 19.9344C64.9126 20.1106 65.0412 20.2628 65.2004 20.378C65.6058 20.6471 66.0877 20.7772 66.5735 20.7484C67.1031 20.7524 67.6238 20.6118 68.0795 20.3417L68.0835 20.3578Z" fill="#2E2E36"/>
<path d="M86.6706 7.02551V22.794H83.5056V21.4773C82.6842 22.4678 81.4936 22.9631 79.934 22.9631C78.915 22.9785 77.9094 22.7302 77.0146 22.2423C76.1466 21.7663 75.4337 21.0506 74.961 20.1807C74.4512 19.2282 74.196 18.1602 74.2201 17.0801C74.1966 15.9988 74.4517 14.9297 74.961 13.9756C75.4337 13.1056 76.1466 12.39 77.0146 11.9139C77.91 11.4277 78.9152 11.1795 79.934 11.1931C80.5709 11.158 81.2077 11.2635 81.7993 11.5022C82.3908 11.7409 82.9225 12.1069 83.3567 12.5743V7.02551H86.6706ZM82.5916 19.3834C82.8751 19.0733 83.0944 18.7101 83.2368 18.3147C83.3791 17.9194 83.4418 17.4998 83.4211 17.0801C83.4421 16.6598 83.3796 16.2395 83.2372 15.8435C83.0949 15.4474 82.8754 15.0836 82.5916 14.7728C82.3246 14.491 82.0012 14.2686 81.6425 14.1201C81.2838 13.9716 80.8979 13.9004 80.5098 13.9111C80.1182 13.9005 79.7286 13.9717 79.366 14.12C79.0034 14.2684 78.6757 14.4907 78.4038 14.7728C78.1205 15.0838 77.9017 15.4478 77.76 15.8438C77.6183 16.2398 77.5566 16.6601 77.5784 17.0801C77.5569 17.4995 77.6188 17.9191 77.7605 18.3144C77.9022 18.7098 78.1209 19.0731 78.4038 19.3834C78.6757 19.6655 79.0034 19.8878 79.366 20.0362C79.7286 20.1846 80.1182 20.2557 80.5098 20.2451C80.8979 20.2558 81.2838 20.1846 81.6425 20.0361C82.0012 19.8877 82.3246 19.6652 82.5916 19.3834Z" fill="#2E2E36"/>
<path d="M100.019 18.0144H91.3697C91.506 18.6959 91.9016 19.2979 92.473 19.6935C93.1091 20.119 93.8625 20.3345 94.6273 20.3096C95.176 20.3216 95.7222 20.2315 96.238 20.0438C96.718 19.8518 97.1548 19.5657 97.5225 19.2023L99.2862 21.1149C98.2124 22.3471 96.6393 22.9632 94.5669 22.9632C93.3837 22.9874 92.2118 22.7293 91.1483 22.2102C90.1976 21.7477 89.4007 21.0206 88.8531 20.1163C88.3078 19.1987 88.029 18.1474 88.0477 17.0802C88.0351 16.0163 88.3136 14.9692 88.8531 14.0521C89.3628 13.166 90.1067 12.4373 91.0033 11.9462C91.9532 11.4567 93.0053 11.1987 94.0738 11.1931C95.1424 11.1875 96.1971 11.4345 97.152 11.914C98.0493 12.3853 98.7917 13.1053 99.2902 13.9877C99.8204 14.9452 100.087 16.0262 100.063 17.1205C100.074 17.1661 100.059 17.4641 100.019 18.0144ZM92.2596 14.338C91.7367 14.7852 91.4029 15.414 91.3254 16.0977H96.9628C96.8775 15.4193 96.5404 14.7976 96.0183 14.3561C95.4963 13.9146 94.8273 13.6853 94.1441 13.7139C93.4615 13.6895 92.7927 13.9109 92.2596 14.338Z" fill="#2E2E36"/>
<path d="M119.919 12.4736C120.759 13.3138 121.181 14.5782 121.183 16.2667V22.794H117.869V16.754C117.922 16.0377 117.722 15.3256 117.306 14.7406C117.106 14.513 116.857 14.334 116.578 14.2175C116.299 14.1009 115.997 14.0498 115.695 14.0682C115.35 14.0521 115.006 14.1115 114.687 14.2422C114.368 14.373 114.081 14.572 113.847 14.8252C113.35 15.4611 113.107 16.2591 113.166 17.064V22.794H109.852V16.754C109.852 14.9581 109.13 14.0588 107.686 14.0561C107.344 14.0408 107.004 14.1006 106.688 14.2314C106.372 14.3622 106.088 14.5608 105.858 14.8131C105.403 15.3124 105.177 16.0614 105.177 17.0519V22.794H101.875V11.3622H105.04V12.679C105.47 12.1962 106.004 11.8187 106.603 11.5756C107.242 11.316 107.926 11.186 108.616 11.1931C109.376 11.1798 110.128 11.3424 110.815 11.6683C111.455 11.981 111.998 12.4627 112.385 13.0615C112.854 12.459 113.464 11.9807 114.161 11.6683C114.899 11.3377 115.7 11.1715 116.508 11.181C117.135 11.1525 117.761 11.2524 118.347 11.4747C118.934 11.697 119.469 12.0369 119.919 12.4736Z" fill="#2E2E36"/>
<path d="M134.87 11.3623L129.704 23.4947C129.18 24.8154 128.532 25.7416 127.759 26.2811C126.934 26.8336 125.957 27.1151 124.964 27.0865C124.366 27.0848 123.771 26.9925 123.201 26.8127C122.678 26.66 122.194 26.3993 121.779 26.0476L122.987 23.688C123.247 23.917 123.545 24.0971 123.869 24.2195C124.183 24.3438 124.518 24.408 124.856 24.4087C125.251 24.4267 125.641 24.3119 125.963 24.0826C126.301 23.7836 126.562 23.408 126.724 22.9873L126.768 22.8786L121.815 11.3623H125.23L128.451 19.1177L131.673 11.3623H134.87Z" fill="#2E2E36"/>
<path d="M14.7461 6.78796H17.7178L10.6872 26.8046H7.73163L14.7461 6.78796Z" fill="#DA0175"/>
<path d="M20.6734 6.78796H23.629L16.6145 26.8046H13.6589L20.6734 6.78796Z" fill="#DA0175"/>
</svg>